<?xml version="1.0" encoding="utf-8"?>
<!-- Generator: Adobe Illustrator 27.5.0, SVG Export Plug-In . SVG Version: 6.00 Build 0)  -->
<svg version="1.1" id="Layer_1" xmlns="http://www.w3.org/2000/svg" xmlns:xlink="http://www.w3.org/1999/xlink" x="0px" y="0px"
	 viewBox="0 0 3000 2000" style="enable-background:new 0 0 3000 2000;" xml:space="preserve">
<g>
	<rect style="fill:#FFFFFF;" width="3000" height="2000"/>
	<path style="fill:#EBF3FA;" d="M2675.347,1795c0,0,355.81-538.58-44.28-1048.98c-308.691-393.802-950.363-74.428-1069.329-117.689
		c-118.965-43.261-375.15-541.091-882.131-384.255C51.951,438.242,113.847,1311.811,330.222,1788.513L2675.347,1795z"/>
	<g>
		<rect x="701.195" y="1501.164" style="fill:#1C2948;" width="1845.244" height="144.079"/>
		<g>
			<circle style="fill:#2D3A62;" cx="2343.506" cy="1668.517" r="119.996"/>
			<path style="fill:#98BDF4;" d="M2343.506,1594.171c-41.06,0-74.346,33.286-74.346,74.346c0,41.061,33.286,74.347,74.346,74.347
				c41.061,0,74.347-33.286,74.347-74.347C2417.853,1627.457,2384.566,1594.171,2343.506,1594.171z M2353.69,1602.318
				c16.19,2.47,30.461,10.75,40.652,22.632l-25.766,15.913c-4.2-3.811-9.277-6.667-14.887-8.255V1602.318z M2333.322,1602.318v30.29
				c-5.609,1.588-10.686,4.444-14.887,8.255l-25.767-15.913C2302.861,1613.068,2317.131,1604.788,2333.322,1602.318z
				 M2281.761,1694.482c-3.362-7.985-5.223-16.758-5.223-25.966c0-9.329,1.912-18.211,5.358-26.28l25.755,15.906
				c-0.951,3.295-1.472,6.773-1.472,10.374c0,3.479,0.485,6.841,1.375,10.035L2281.761,1694.482z M2333.322,1734.716
				c-16.31-2.488-30.672-10.87-40.878-22.892l25.736-15.896c4.25,3.93,9.416,6.876,15.142,8.497V1734.716z M2326.627,1668.517
				c0-9.321,7.558-16.879,16.879-16.879c9.322,0,16.88,7.558,16.88,16.879c0,9.322-7.558,16.88-16.88,16.88
				C2334.185,1685.396,2326.627,1677.839,2326.627,1668.517z M2353.69,1734.716v-30.29c5.726-1.621,10.892-4.567,15.142-8.497
				l25.736,15.896C2384.362,1723.846,2370,1732.228,2353.69,1734.716z M2379.457,1678.552c0.891-3.194,1.376-6.557,1.376-10.035
				c0-3.601-0.521-7.079-1.472-10.374l25.755-15.906c3.446,8.069,5.358,16.951,5.358,26.28c0,9.208-1.86,17.98-5.223,25.966
				L2379.457,1678.552z"/>
		</g>
		<g>
			<g>
				<g>
					<circle style="fill:#2D3A62;" cx="850.437" cy="1668.517" r="119.996"/>
				</g>
			</g>
			<path style="fill:#98BDF4;" d="M850.437,1594.171c-41.06,0-74.346,33.285-74.346,74.346s33.286,74.347,74.346,74.347
				c41.061,0,74.346-33.286,74.346-74.347S891.498,1594.171,850.437,1594.171z M860.621,1602.318
				c16.191,2.47,30.461,10.75,40.653,22.632l-25.766,15.913c-4.2-3.811-9.277-6.667-14.887-8.256V1602.318z M840.253,1602.318
				v30.289c-5.61,1.589-10.686,4.445-14.887,8.256L799.6,1624.95C809.792,1613.068,824.062,1604.788,840.253,1602.318z
				 M788.691,1694.482c-3.362-7.985-5.223-16.758-5.223-25.966c0-9.329,1.913-18.211,5.358-26.28l25.755,15.906
				c-0.951,3.295-1.472,6.773-1.472,10.374c0,3.479,0.486,6.841,1.375,10.034L788.691,1694.482z M840.253,1734.716
				c-16.31-2.489-30.672-10.87-40.878-22.892l25.736-15.896c4.25,3.929,9.416,6.876,15.142,8.497V1734.716z M833.558,1668.517
				c0-9.322,7.558-16.879,16.879-16.879c9.322,0,16.879,7.557,16.879,16.879s-7.557,16.88-16.879,16.88
				C841.115,1685.396,833.558,1677.839,833.558,1668.517z M860.621,1734.716v-30.29c5.726-1.621,10.892-4.568,15.142-8.497
				l25.736,15.896C891.293,1723.846,876.931,1732.227,860.621,1734.716z M886.388,1678.551c0.89-3.193,1.375-6.556,1.375-10.034
				c0-3.601-0.521-7.079-1.472-10.374l25.755-15.906c3.446,8.069,5.359,16.951,5.359,26.28c0,9.208-1.861,17.98-5.223,25.966
				L886.388,1678.551z"/>
		</g>
		<g>
			<path style="fill:#EE9849;" d="M1479.141,908.273H429.601V875.93c0-14.583,11.822-26.405,26.406-26.405h968.235
				c8.613,0,16.685,4.201,21.627,11.255L1479.141,908.273z"/>
			<polygon style="fill:#E58638;" points="429.601,889.047 429.601,908.273 1479.141,908.273 1465.672,889.047 			"/>
			<path style="fill:#EE9849;" d="M2574.021,908.273H364.455c-37.463,0-67.832,30.37-67.832,67.832v617.578
				c0,16.646,11.876,30.922,28.244,33.952l185.976,34.43h206.606c0-72.759,58.983-131.742,131.741-131.742
				c72.759,0,131.742,58.983,131.742,131.742h1229.585c0-72.759,58.983-131.742,131.741-131.742
				c72.76,0,131.742,58.983,131.742,131.742h134.239c18.564,0,33.615-15.05,33.615-33.615V976.106
				C2641.854,938.643,2611.484,908.273,2574.021,908.273z"/>
			<g>
				<path style="fill:#E58638;" d="M2451.023,1587.719c14.492,21.161,22.977,46.762,22.977,74.347h134.239
					c18.565,0,33.615-15.05,33.615-33.615l0,0c0-22.496-18.236-40.731-40.731-40.731H2451.023z"/>
				<path style="fill:#E58638;" d="M296.623,1587.719v5.965c0,16.646,11.876,30.922,28.244,33.952l185.976,34.43h206.606
					c0-27.585,8.484-53.186,22.977-74.347H296.623z"/>
				<path style="fill:#E58638;" d="M957.954,1587.719c14.493,21.161,22.977,46.762,22.977,74.347h1229.585
					c0-27.585,8.484-53.186,22.977-74.347H957.954z"/>
			</g>
			<rect x="282.49" y="1406.498" style="fill:#B64C41;" width="30.008" height="158.821"/>
			<rect x="282.49" y="1363.43" style="fill:#B64C41;" width="30.008" height="30.009"/>
			<path style="fill:#B64C41;" d="M2641.854,1542.068L2641.854,1542.068c-8.542,0-15.466-6.924-15.466-15.465v-112.691
				c0-8.541,6.924-15.465,15.465-15.465h0.001V1542.068z"/>
			<path style="fill:#163560;" d="M1102.763,1330.448h636.015c12.127,0,21.957-9.831,21.957-21.957v-287.703
				c0-12.126-9.83-21.957-21.957-21.957h-636.015c-12.126,0-21.957,9.831-21.957,21.957v287.703
				C1080.806,1320.617,1090.636,1330.448,1102.763,1330.448z"/>
			<path style="fill:#163560;" d="M2160.584,1330.448h234.064c12.126,0,21.956-9.831,21.956-21.957v-287.703
				c0-12.126-9.83-21.957-21.956-21.957h-234.064c-12.126,0-21.957,9.831-21.957,21.957v287.703
				C2138.627,1320.617,2148.458,1330.448,2160.584,1330.448z"/>
			<path style="fill:#163560;" d="M2584.914,1330.448h56.94v-309.66c0-12.126-9.831-21.957-21.957-21.957h-159.474
				c-12.126,0-21.957,9.831-21.957,21.957v163.213C2438.467,1264.881,2504.033,1330.448,2584.914,1330.448z"/>
			<path style="fill:#BBD4F2;" d="M1102.763,1330.448h636.015c12.127,0,21.957-9.831,21.957-21.957v-287.703
				c0-12.126-9.83-21.957-21.957-21.957h-636.015c-12.126,0-21.957,9.831-21.957,21.957v287.703
				C1080.806,1320.617,1090.636,1330.448,1102.763,1330.448z"/>
			<path style="fill:#BBD4F2;" d="M2160.584,1330.448h234.064c12.126,0,21.956-9.831,21.956-21.957v-287.703
				c0-12.126-9.83-21.957-21.956-21.957h-234.064c-12.126,0-21.957,9.831-21.957,21.957v287.703
				C2138.627,1320.617,2148.458,1330.448,2160.584,1330.448z"/>
			<path style="fill:#BBD4F2;" d="M2584.914,1330.448h56.94v-309.66c0-12.126-9.831-21.957-21.957-21.957h-159.474
				c-12.126,0-21.957,9.831-21.957,21.957v163.213C2438.467,1264.881,2504.033,1330.448,2584.914,1330.448z"/>
			<path style="fill:#163560;" d="M376.422,1330.448h636.015c12.126,0,21.957-9.831,21.957-21.957v-287.703
				c0-12.126-9.831-21.957-21.957-21.957H376.422c-12.126,0-21.957,9.831-21.957,21.957v287.703
				C354.465,1320.617,364.296,1330.448,376.422,1330.448z"/>
			<path style="fill:#BBD4F2;" d="M376.422,1330.448h636.015c12.126,0,21.957-9.831,21.957-21.957v-287.703
				c0-12.126-9.831-21.957-21.957-21.957H376.422c-12.126,0-21.957,9.831-21.957,21.957v287.703
				C354.465,1320.617,364.296,1330.448,376.422,1330.448z"/>
			<path style="fill:#BBD4F2;" d="M2098.325,998.831h-164.288h-19.441h-110.492c-12.127,0-21.957,9.831-21.957,21.957v641.277
				h132.449h19.441h186.245v-641.277C2120.282,1008.662,2110.452,998.831,2098.325,998.831z"/>
			<g>
				<defs>
					<path id="SVGID_1_" d="M1102.763,1330.448h636.015c12.127,0,21.957-9.831,21.957-21.957v-287.703
						c0-12.126-9.83-21.957-21.957-21.957h-636.015c-12.126,0-21.957,9.831-21.957,21.957v287.703
						C1080.806,1320.617,1090.636,1330.448,1102.763,1330.448z"/>
				</defs>
				<clipPath id="SVGID_00000000915406642405034670000003546341625880556985_">
					<use xlink:href="#SVGID_1_"  style="overflow:visible;"/>
				</clipPath>
				<polygon style="clip-path:url(#SVGID_00000000915406642405034670000003546341625880556985_);fill:#D5E7F7;" points="
					1095.449,1512.095 1001.588,1512.095 1414.906,783.833 1508.768,783.833 				"/>
				<polygon style="clip-path:url(#SVGID_00000000915406642405034670000003546341625880556985_);fill:#D5E7F7;" points="
					1248.542,1528.771 1154.681,1528.771 1567.999,800.509 1661.859,800.509 				"/>
				<polygon style="clip-path:url(#SVGID_00000000915406642405034670000003546341625880556985_);fill:#D5E7F7;" points="
					1524.649,1543.592 1430.789,1543.592 1844.106,815.33 1937.968,815.33 				"/>
				<polygon style="clip-path:url(#SVGID_00000000915406642405034670000003546341625880556985_);fill:#D5E7F7;" points="
					1306.779,1542.068 1282.031,1542.068 1695.349,813.807 1720.098,813.807 				"/>
			</g>
			<g>
				<defs>
					<path id="SVGID_00000009584919299042342530000005766872073622925461_" d="M2160.584,1330.448h234.064
						c12.126,0,21.956-9.831,21.956-21.957v-287.703c0-12.126-9.83-21.957-21.956-21.957h-234.064
						c-12.126,0-21.957,9.831-21.957,21.957v287.703C2138.627,1320.617,2148.458,1330.448,2160.584,1330.448z"/>
				</defs>
				<clipPath id="SVGID_00000122696851247292705760000005697273523085599137_">
					<use xlink:href="#SVGID_00000009584919299042342530000005766872073622925461_"  style="overflow:visible;"/>
				</clipPath>
				<polygon style="clip-path:url(#SVGID_00000122696851247292705760000005697273523085599137_);fill:#D5E7F7;" points="
					2170.299,1474.584 2076.438,1474.584 2489.756,746.322 2583.617,746.322 				"/>
				<polygon style="clip-path:url(#SVGID_00000122696851247292705760000005697273523085599137_);fill:#D5E7F7;" points="
					2228.536,1487.882 2203.787,1487.882 2617.105,759.621 2641.854,759.621 				"/>
			</g>
			<g>
				<defs>
					<path id="SVGID_00000005972567006837925180000000896193479542750343_" d="M2584.914,1330.448h56.94v-309.66
						c0-12.126-9.831-21.957-21.957-21.957h-159.474c-12.126,0-21.957,9.831-21.957,21.957v163.213
						C2438.467,1264.881,2504.033,1330.448,2584.914,1330.448z"/>
				</defs>
				<clipPath id="SVGID_00000114059259841351539370000006366204007114307727_">
					<use xlink:href="#SVGID_00000005972567006837925180000000896193479542750343_"  style="overflow:visible;"/>
				</clipPath>
				<polygon style="clip-path:url(#SVGID_00000114059259841351539370000006366204007114307727_);fill:#D5E7F7;" points="
					2394.77,1461.285 2347.839,1461.285 2761.157,733.023 2808.088,733.023 				"/>
				<polygon style="clip-path:url(#SVGID_00000114059259841351539370000006366204007114307727_);fill:#D5E7F7;" points="
					2453.007,1474.584 2428.258,1474.584 2841.576,746.322 2866.324,746.322 				"/>
			</g>
			<g>
				<defs>
					<path id="SVGID_00000142156713419550971690000011544195391504576188_" d="M376.422,1330.448h636.015
						c12.126,0,21.957-9.831,21.957-21.957v-287.703c0-12.126-9.831-21.957-21.957-21.957H376.422
						c-12.126,0-21.957,9.831-21.957,21.957v287.703C354.465,1320.617,364.296,1330.448,376.422,1330.448z"/>
				</defs>
				<clipPath id="SVGID_00000057834488656479162760000011885013972514033586_">
					<use xlink:href="#SVGID_00000142156713419550971690000011544195391504576188_"  style="overflow:visible;"/>
				</clipPath>
				<polygon style="clip-path:url(#SVGID_00000057834488656479162760000011885013972514033586_);fill:#D5E7F7;" points="
					358.795,1504.41 264.934,1504.41 678.252,776.148 772.113,776.148 				"/>
				<polygon style="clip-path:url(#SVGID_00000057834488656479162760000011885013972514033586_);fill:#D5E7F7;" points="
					682.659,1504.41 588.798,1504.41 1002.116,776.148 1095.978,776.148 				"/>
				<polygon style="clip-path:url(#SVGID_00000057834488656479162760000011885013972514033586_);fill:#D5E7F7;" points="
					412.605,1504.41 387.893,1504.41 801.21,776.148 825.923,776.148 				"/>
			</g>
			<g>
				<defs>
					<path id="SVGID_00000025421725340758879100000008929427724289484723_" d="M2098.325,998.831h-164.288h-19.441h-110.492
						c-12.127,0-21.957,9.831-21.957,21.957v641.277h132.449h19.441h186.245v-641.277
						C2120.282,1008.662,2110.452,998.831,2098.325,998.831z"/>
				</defs>
				<clipPath id="SVGID_00000147180184222142131430000002841463801222814600_">
					<use xlink:href="#SVGID_00000025421725340758879100000008929427724289484723_"  style="overflow:visible;"/>
				</clipPath>
				<polygon style="clip-path:url(#SVGID_00000147180184222142131430000002841463801222814600_);fill:#D5E7F7;" points="
					1662.073,1682.529 1568.213,1682.529 1981.53,954.268 2075.392,954.268 				"/>
				<polygon style="clip-path:url(#SVGID_00000147180184222142131430000002841463801222814600_);fill:#D5E7F7;" points="
					1720.311,1695.827 1695.563,1695.827 2108.881,967.566 2133.629,967.566 				"/>
				<polygon style="clip-path:url(#SVGID_00000147180184222142131430000002841463801222814600_);fill:#D5E7F7;" points="
					1886.544,1669.23 1839.613,1669.23 2252.932,940.969 2299.862,940.969 				"/>
			</g>
			<rect x="1941.87" y="998.831" style="fill:#163560;" width="18.113" height="663.234"/>
			<path style="fill:#163560;" d="M1012.438,1335.938H376.422c-15.134,0-27.446-12.313-27.446-27.446v-287.703
				c0-15.134,12.312-27.446,27.446-27.446h636.015c15.134,0,27.446,12.312,27.446,27.446v287.703
				C1039.883,1323.625,1027.571,1335.938,1012.438,1335.938z M376.422,1004.32c-9.081,0-16.467,7.387-16.467,16.468v287.703
				c0,9.081,7.387,16.468,16.467,16.468h636.015c9.081,0,16.468-7.387,16.468-16.468v-287.703c0-9.081-7.387-16.468-16.468-16.468
				H376.422z"/>
			<path style="fill:#163560;" d="M1738.777,1335.938h-636.015c-15.134,0-27.446-12.313-27.446-27.446v-287.703
				c0-15.134,12.313-27.446,27.446-27.446h636.015c15.134,0,27.446,12.312,27.446,27.446v287.703
				C1766.224,1323.625,1753.911,1335.938,1738.777,1335.938z M1102.763,1004.32c-9.081,0-16.468,7.387-16.468,16.468v287.703
				c0,9.081,7.387,16.468,16.468,16.468h636.015c9.081,0,16.468-7.387,16.468-16.468v-287.703c0-9.081-7.387-16.468-16.468-16.468
				H1102.763z"/>
			<path style="fill:#163560;" d="M2125.771,1667.554h-349.114v-646.766c0-15.134,12.313-27.446,27.446-27.446h294.223
				c15.134,0,27.445,12.312,27.445,27.446V1667.554z M1787.636,1656.575h327.157v-635.787c0-9.081-7.387-16.468-16.467-16.468
				h-294.223c-9.081,0-16.468,7.387-16.468,16.468V1656.575z"/>
			<path style="fill:#163560;" d="M2394.647,1335.938h-234.063c-15.134,0-27.446-12.313-27.446-27.446v-287.703
				c0-15.134,12.313-27.446,27.446-27.446h234.063c15.134,0,27.446,12.312,27.446,27.446v287.703
				C2422.094,1323.625,2409.781,1335.938,2394.647,1335.938z M2160.585,1004.32c-9.081,0-16.468,7.387-16.468,16.468v287.703
				c0,9.081,7.387,16.468,16.468,16.468h234.063c9.081,0,16.468-7.387,16.468-16.468v-287.703c0-9.081-7.387-16.468-16.468-16.468
				H2160.585z"/>
			<path style="fill:#163560;" d="M2635.552,1335.938h-50.637c-83.778,0-151.937-68.159-151.937-151.938v-163.212
				c0-15.134,12.312-27.446,27.445-27.446h159.474c15.134,0,27.446,12.312,27.446,27.446v303.357
				C2647.344,1330.647,2642.054,1335.938,2635.552,1335.938z M2460.424,1004.32c-9.081,0-16.468,7.387-16.468,16.468V1184
				c0,77.726,63.233,140.959,140.959,140.959h50.637c0.449,0,0.813-0.366,0.813-0.813v-303.357c0-9.081-7.387-16.468-16.468-16.468
				H2460.424z"/>
			<rect x="1743.722" y="1662.065" style="fill:#EE9849;" width="414.436" height="19.626"/>
			<rect x="1718.667" y="1681.691" style="fill:#E58638;" width="464.546" height="19.625"/>
			<path style="fill:#EE9849;" d="M2694.09,1205.958L2694.09,1205.958c-12.936,0-23.422-10.485-23.422-23.421V990.78
				c0-12.935,10.486-23.42,23.422-23.42l0,0c12.935,0,23.42,10.486,23.42,23.42v191.757
				C2717.51,1195.473,2707.024,1205.958,2694.09,1205.958z"/>
			<path style="fill:#E58638;" d="M2684.117,982.638h-220.301c-8.438,0-15.278-6.84-15.278-15.278l0,0
				c0-8.438,6.841-15.278,15.278-15.278h220.301c8.438,0,15.278,6.84,15.278,15.278l0,0
				C2699.396,975.798,2692.555,982.638,2684.117,982.638z"/>
		</g>
	</g>
	<g>
		<path style="fill:#FFFFFF;" d="M587.893,1374.43c5.771,0,11.07,0.836,15.895,2.503c4.824,1.67,8.996,3.812,12.513,6.426
			c3.517,2.617,6.267,5.502,8.252,8.658c1.983,3.157,3.021,6.178,3.111,9.063c0,0.812-0.294,1.511-0.879,2.096
			c-0.587,0.588-1.241,0.88-1.961,0.88h-17.721c-1.264,0-2.278-0.18-3.043-0.541c-0.768-0.359-1.556-0.9-2.368-1.623
			c-0.271-0.271-0.7-0.721-1.285-1.353c-0.588-0.63-1.421-1.285-2.503-1.962c-1.082-0.677-2.435-1.262-4.058-1.759
			c-1.624-0.494-3.608-0.744-5.953-0.744c-1.714,0-3.36,0.114-4.938,0.339c-1.579,0.226-2.976,0.587-4.193,1.082
			c-1.218,0.497-2.211,1.196-2.976,2.097c-0.767,0.902-1.15,2.029-1.15,3.382s0.427,2.481,1.285,3.382
			c0.856,0.902,2.3,1.737,4.329,2.503c2.029,0.768,4.711,1.511,8.049,2.231c3.336,0.724,7.484,1.579,12.445,2.57
			c4.958,0.994,9.288,2.256,12.986,3.788c3.697,1.534,6.785,3.449,9.267,5.749c2.48,2.3,4.329,5.006,5.546,8.117
			c1.217,3.111,1.826,6.786,1.826,11.024c0,4.6-1.038,8.704-3.111,12.311c-2.076,3.607-4.984,6.696-8.725,9.267
			c-3.744,2.57-8.164,4.531-13.257,5.884c-5.096,1.354-10.666,2.029-16.707,2.029c-6.134,0-11.725-0.812-16.774-2.435
			c-5.052-1.623-9.402-3.765-13.054-6.426c-3.652-2.659-6.517-5.658-8.59-8.996c-2.076-3.335-3.158-6.717-3.247-10.146
			c0-0.812,0.292-1.51,0.879-2.097c0.585-0.586,1.239-0.88,1.961-0.88h17.721c1.262,0,2.253,0.159,2.976,0.474
			c0.721,0.317,1.442,0.791,2.164,1.421c0.359,0.361,0.9,0.946,1.624,1.759c0.721,0.812,1.691,1.646,2.908,2.502
			c1.218,0.858,2.75,1.603,4.6,2.232c1.847,0.632,4.126,0.946,6.831,0.946c4.779,0,8.77-0.518,11.972-1.556
			c3.2-1.035,4.802-2.908,4.802-5.613c0-1.353-0.588-2.479-1.758-3.382c-1.173-0.9-2.932-1.735-5.276-2.503
			c-2.346-0.766-5.343-1.509-8.996-2.232c-3.652-0.721-7.96-1.623-12.919-2.705c-9.289-1.982-16.077-5.297-20.359-9.942
			c-4.285-4.645-6.426-10.844-6.426-18.601c0-3.877,0.879-7.576,2.638-11.093c1.758-3.518,4.305-6.629,7.643-9.335
			c3.335-2.705,7.373-4.846,12.107-6.426C576.733,1375.221,582.03,1374.43,587.893,1374.43z"/>
		<path style="fill:#FFFFFF;" d="M665.677,1411.767c-0.091,1.173-0.159,2.797-0.203,4.87c-0.046,2.075-0.067,4.217-0.067,6.426
			c0,2.211,0.021,4.375,0.067,6.492c0.044,2.121,0.112,3.768,0.203,4.938c0.18,2.075,0.585,4.058,1.217,5.952
			c0.63,1.894,1.624,3.563,2.976,5.005c1.353,1.443,3.065,2.594,5.141,3.45c2.074,0.857,4.644,1.284,7.711,1.284
			c3.065,0,5.591-0.358,7.575-1.082c1.983-0.721,3.606-1.6,4.87-2.638c1.262-1.035,2.232-2.186,2.909-3.449
			c0.676-1.262,1.194-2.436,1.556-3.518c0.45-1.441,0.947-2.456,1.488-3.044c0.541-0.585,1.577-0.879,3.111-0.879h17.721
			c0.812,0,1.509,0.294,2.097,0.879c0.586,0.588,0.879,1.285,0.879,2.097c-0.091,4.6-1.217,8.929-3.382,12.987
			c-2.165,4.058-5.141,7.575-8.928,10.552c-3.788,2.976-8.231,5.343-13.325,7.102c-5.096,1.759-10.619,2.638-16.571,2.638
			c-6.494,0-12.289-0.97-17.383-2.908c-5.096-1.938-9.448-4.576-13.054-7.914c-3.608-3.335-6.381-7.237-8.319-11.701
			c-1.94-4.464-3.044-9.176-3.314-14.137c-0.182-3.696-0.271-7.664-0.271-11.903c0-4.238,0.089-8.297,0.271-12.176
			c0.18-4.959,1.262-9.672,3.247-14.136c1.983-4.464,4.756-8.364,8.32-11.702c3.561-3.335,7.914-5.973,13.054-7.914
			c5.14-1.938,10.957-2.908,17.451-2.908c5.952,0,11.475,0.88,16.571,2.639c5.094,1.758,9.537,4.125,13.325,7.102
			s6.764,6.493,8.928,10.552c2.164,4.058,3.291,8.388,3.382,12.986c0,0.813-0.293,1.512-0.879,2.097
			c-0.588,0.588-1.285,0.879-2.097,0.879H704.23c-1.535,0-2.57-0.291-3.111-0.879c-0.541-0.585-1.038-1.6-1.488-3.043
			c-0.362-1.082-0.879-2.254-1.556-3.518c-0.677-1.262-1.647-2.411-2.909-3.449c-1.264-1.036-2.887-1.915-4.87-2.638
			c-1.984-0.722-4.51-1.083-7.575-1.083c-3.067,0-5.637,0.43-7.711,1.285c-2.076,0.858-3.788,2.008-5.141,3.449
			c-1.352,1.444-2.346,3.112-2.976,5.006C666.262,1407.708,665.856,1409.693,665.677,1411.767z"/>
		<path style="fill:#FFFFFF;" d="M815.292,1375.783c0.991,0,1.847,0.361,2.57,1.082c0.721,0.723,1.082,1.578,1.082,2.57v87.389
			c0,0.993-0.361,1.85-1.082,2.57c-0.723,0.723-1.579,1.082-2.57,1.082h-17.721c-0.994,0-1.85-0.359-2.57-1.082
			c-0.723-0.721-1.083-1.577-1.083-2.57v-33.143h-30.031v33.143c0,0.993-0.361,1.85-1.082,2.57c-0.723,0.723-1.579,1.082-2.57,1.082
			h-17.721c-0.994,0-1.85-0.338-2.57-1.015c-0.723-0.677-1.083-1.556-1.083-2.638v-87.389c0-0.992,0.359-1.848,1.083-2.57
			c0.721-0.721,1.577-1.082,2.57-1.082h17.721c0.991,0,1.847,0.361,2.57,1.082c0.721,0.723,1.082,1.578,1.082,2.57v32.602h30.031
			v-32.602c0-0.992,0.359-1.848,1.083-2.57c0.721-0.721,1.577-1.082,2.57-1.082H815.292z"/>
		<path style="fill:#FFFFFF;" d="M834.771,1411.09c0.271-5.049,1.374-9.807,3.314-14.271c1.938-4.464,4.688-8.341,8.252-11.634
			c3.561-3.291,7.89-5.905,12.986-7.847c5.094-1.938,10.979-2.908,17.654-2.908c6.582,0,12.445,0.971,17.586,2.908
			c5.141,1.941,9.49,4.556,13.054,7.847c3.562,3.293,6.312,7.17,8.252,11.634c1.938,4.465,3.044,9.223,3.314,14.271
			c0.18,3.879,0.271,7.938,0.271,12.176c0,4.239-0.091,8.207-0.271,11.903c-0.271,5.052-1.376,9.808-3.314,14.272
			c-1.94,4.464-4.69,8.365-8.252,11.701c-3.564,3.338-7.914,5.952-13.054,7.846c-5.141,1.895-11.004,2.841-17.586,2.841
			c-6.675,0-12.56-0.946-17.654-2.841c-5.096-1.894-9.425-4.508-12.986-7.846c-3.564-3.336-6.314-7.237-8.252-11.701
			c-1.94-4.465-3.044-9.221-3.314-14.272c-0.182-3.696-0.271-7.664-0.271-11.903C834.501,1419.027,834.59,1414.969,834.771,1411.09z
			 M894.158,1434.493c0.089-1.624,0.18-3.427,0.27-5.411c0.089-1.982,0.135-4.012,0.135-6.087c0-2.074-0.046-4.08-0.135-6.021
			c-0.091-1.938-0.182-3.674-0.27-5.208c-0.182-2.253-0.655-4.329-1.42-6.223c-0.768-1.894-1.85-3.538-3.247-4.938
			c-1.399-1.397-3.135-2.503-5.208-3.314c-2.076-0.812-4.51-1.218-7.305-1.218c-2.796,0-5.231,0.406-7.305,1.218
			c-2.076,0.812-3.811,1.917-5.208,3.314c-1.399,1.399-2.481,3.044-3.247,4.938c-0.768,1.894-1.241,3.97-1.42,6.223
			c-0.182,1.534-0.294,3.27-0.338,5.208c-0.046,1.94-0.067,3.946-0.067,6.021c0,2.075,0.021,4.104,0.067,6.087
			c0.044,1.984,0.157,3.787,0.338,5.411c0.359,4.511,1.915,8.252,4.667,11.228c2.75,2.977,6.92,4.464,12.513,4.464
			c5.591,0,9.74-1.487,12.445-4.464C892.129,1442.745,893.706,1439.004,894.158,1434.493z"/>
		<path style="fill:#FFFFFF;" d="M931.898,1411.09c0.271-5.049,1.374-9.807,3.315-14.271c1.938-4.464,4.688-8.341,8.252-11.634
			c3.562-3.291,7.89-5.905,12.986-7.847c5.094-1.938,10.979-2.908,17.654-2.908c6.582,0,12.445,0.971,17.586,2.908
			c5.141,1.941,9.49,4.556,13.054,7.847c3.561,3.293,6.311,7.17,8.252,11.634c1.938,4.465,3.043,9.223,3.314,14.271
			c0.18,3.879,0.271,7.938,0.271,12.176c0,4.239-0.091,8.207-0.271,11.903c-0.27,5.052-1.376,9.808-3.314,14.272
			c-1.94,4.464-4.69,8.365-8.252,11.701c-3.564,3.338-7.914,5.952-13.054,7.846c-5.141,1.895-11.004,2.841-17.586,2.841
			c-6.675,0-12.56-0.946-17.654-2.841c-5.096-1.894-9.425-4.508-12.986-7.846c-3.564-3.336-6.314-7.237-8.252-11.701
			c-1.94-4.465-3.044-9.221-3.315-14.272c-0.182-3.696-0.271-7.664-0.271-11.903C931.628,1419.027,931.717,1414.969,931.898,1411.09
			z M991.285,1434.493c0.089-1.624,0.18-3.427,0.271-5.411c0.089-1.982,0.135-4.012,0.135-6.087c0-2.074-0.046-4.08-0.135-6.021
			c-0.091-1.938-0.182-3.674-0.271-5.208c-0.182-2.253-0.655-4.329-1.42-6.223c-0.768-1.894-1.85-3.538-3.247-4.938
			c-1.399-1.397-3.135-2.503-5.208-3.314c-2.076-0.812-4.51-1.218-7.305-1.218c-2.796,0-5.232,0.406-7.305,1.218
			c-2.076,0.812-3.811,1.917-5.208,3.314c-1.399,1.399-2.481,3.044-3.247,4.938c-0.768,1.894-1.241,3.97-1.42,6.223
			c-0.182,1.534-0.294,3.27-0.338,5.208c-0.046,1.94-0.067,3.946-0.067,6.021c0,2.075,0.021,4.104,0.067,6.087
			c0.044,1.984,0.157,3.787,0.338,5.411c0.359,4.511,1.915,8.252,4.667,11.228c2.75,2.977,6.92,4.464,12.513,4.464
			c5.591,0,9.74-1.487,12.445-4.464C989.256,1442.745,990.832,1439.004,991.285,1434.493z"/>
		<path style="fill:#FFFFFF;" d="M1098.422,1448.832c0.991,0,1.848,0.361,2.57,1.082c0.721,0.724,1.082,1.579,1.082,2.57v14.34
			c0,0.993-0.361,1.85-1.082,2.57c-0.723,0.723-1.579,1.082-2.57,1.082h-62.633c-0.994,0-1.85-0.359-2.57-1.082
			c-0.723-0.721-1.083-1.577-1.083-2.57v-87.389c0-0.992,0.359-1.848,1.083-2.57c0.721-0.721,1.577-1.082,2.57-1.082h17.721
			c0.991,0,1.847,0.361,2.57,1.082c0.721,0.723,1.082,1.578,1.082,2.57v69.396H1098.422z"/>
		<path style="fill:#FFFFFF;" d="M1142.793,1470.477c-0.994,0-1.85-0.359-2.57-1.082c-0.723-0.721-1.083-1.577-1.083-2.57v-87.389
			c0-0.992,0.359-1.848,1.083-2.57c0.721-0.721,1.577-1.082,2.57-1.082h43.559c6.041,0,11.137,0.834,15.286,2.502
			c4.147,1.67,7.461,3.835,9.943,6.494c2.479,2.66,4.261,5.682,5.343,9.063c1.083,3.383,1.624,6.743,1.624,10.079
			c0,2.616-0.294,4.893-0.879,6.831c-0.587,1.94-1.285,3.607-2.097,5.006c-0.812,1.398-1.646,2.525-2.503,3.381
			c-0.858,0.858-1.556,1.512-2.097,1.962c3.517,2.435,5.973,5.255,7.373,8.454c1.397,3.203,2.097,7.059,2.097,11.566
			c0,3.699-0.541,7.306-1.623,10.822c-1.083,3.518-2.864,6.652-5.344,9.402c-2.481,2.752-5.705,4.961-9.672,6.628
			c-3.97,1.67-8.84,2.503-14.61,2.503H1142.793z M1193.387,1404.462c0-2.345-0.7-4.216-2.097-5.614
			c-1.399-1.397-3.45-2.097-6.155-2.097h-20.968v15.421h20.968c2.706,0,4.756-0.697,6.155-2.096
			C1192.687,1408.679,1193.387,1406.808,1193.387,1404.462z M1164.167,1449.509h22.321c2.706,0,4.87-0.788,6.493-2.367
			c1.623-1.577,2.435-3.539,2.435-5.885c0-2.344-0.812-4.306-2.435-5.885c-1.624-1.576-3.788-2.367-6.493-2.367h-22.321V1449.509z"
			/>
		<path style="fill:#FFFFFF;" d="M1313.105,1375.783c0.991,0,1.848,0.361,2.57,1.082c0.721,0.723,1.082,1.578,1.082,2.57v53.976
			c0,6.223-0.993,11.725-2.976,16.503c-1.984,4.781-4.802,8.793-8.455,12.04s-8.004,5.705-13.054,7.373
			c-5.052,1.667-10.598,2.502-16.639,2.502c-6.134,0-11.725-0.835-16.774-2.502c-5.052-1.668-9.38-4.126-12.986-7.373
			c-3.608-3.247-6.405-7.259-8.387-12.04c-1.985-4.778-2.976-10.28-2.976-16.503v-53.976c0-0.992,0.359-1.848,1.082-2.57
			c0.721-0.721,1.577-1.082,2.57-1.082h17.721c0.992,0,1.848,0.361,2.57,1.082c0.721,0.723,1.083,1.578,1.083,2.57v53.434
			c0,5.411,1.329,9.651,3.99,12.717c2.659,3.066,6.696,4.599,12.107,4.599s9.446-1.532,12.107-4.599
			c2.659-3.065,3.991-7.306,3.991-12.717v-53.434c0-0.992,0.359-1.848,1.082-2.57c0.721-0.721,1.577-1.082,2.57-1.082H1313.105z"/>
		<path style="fill:#FFFFFF;" d="M1369.92,1374.43c5.771,0,11.07,0.836,15.895,2.503c4.824,1.67,8.996,3.812,12.513,6.426
			c3.517,2.617,6.267,5.502,8.252,8.658c1.983,3.157,3.021,6.178,3.111,9.063c0,0.812-0.294,1.511-0.879,2.096
			c-0.587,0.588-1.241,0.88-1.961,0.88h-17.721c-1.264,0-2.278-0.18-3.043-0.541c-0.768-0.359-1.556-0.9-2.368-1.623
			c-0.271-0.271-0.7-0.721-1.285-1.353c-0.587-0.63-1.42-1.285-2.502-1.962s-2.435-1.262-4.058-1.759
			c-1.624-0.494-3.608-0.744-5.953-0.744c-1.714,0-3.36,0.114-4.938,0.339c-1.579,0.226-2.976,0.587-4.193,1.082
			c-1.218,0.497-2.211,1.196-2.976,2.097c-0.768,0.902-1.15,2.029-1.15,3.382s0.427,2.481,1.285,3.382
			c0.856,0.902,2.3,1.737,4.329,2.503c2.029,0.768,4.711,1.511,8.049,2.231c3.335,0.724,7.484,1.579,12.445,2.57
			c4.958,0.994,9.288,2.256,12.986,3.788c3.697,1.534,6.785,3.449,9.267,5.749c2.479,2.3,4.329,5.006,5.546,8.117
			s1.826,6.786,1.826,11.024c0,4.6-1.038,8.704-3.111,12.311c-2.076,3.607-4.984,6.696-8.725,9.267
			c-3.744,2.57-8.164,4.531-13.257,5.884c-5.096,1.354-10.666,2.029-16.707,2.029c-6.134,0-11.725-0.812-16.774-2.435
			c-5.052-1.623-9.402-3.765-13.054-6.426c-3.652-2.659-6.517-5.658-8.59-8.996c-2.076-3.335-3.158-6.717-3.247-10.146
			c0-0.812,0.292-1.51,0.879-2.097c0.585-0.586,1.239-0.88,1.961-0.88h17.721c1.262,0,2.253,0.159,2.976,0.474
			c0.721,0.317,1.442,0.791,2.165,1.421c0.359,0.361,0.9,0.946,1.624,1.759c0.721,0.812,1.691,1.646,2.908,2.502
			c1.218,0.858,2.75,1.603,4.6,2.232c1.847,0.632,4.126,0.946,6.832,0.946c4.779,0,8.77-0.518,11.972-1.556
			c3.2-1.035,4.802-2.908,4.802-5.613c0-1.353-0.587-2.479-1.758-3.382c-1.173-0.9-2.932-1.735-5.276-2.503
			c-2.346-0.766-5.343-1.509-8.996-2.232c-3.652-0.721-7.96-1.623-12.919-2.705c-9.29-1.982-16.077-5.297-20.359-9.942
			c-4.285-4.645-6.426-10.844-6.426-18.601c0-3.877,0.879-7.576,2.638-11.093c1.758-3.518,4.305-6.629,7.643-9.335
			c3.335-2.705,7.373-4.846,12.107-6.426C1358.76,1375.221,1364.057,1374.43,1369.92,1374.43z"/>
	</g>
	<g>
		<g>
			<polygon style="fill:#FFB27D;" points="1702.699,1685.72 1696.09,1713.525 1687.317,1750.4 1659.909,1750.4 1658.277,1715.076 
				1657.014,1687.829 			"/>
			<path style="fill:#BC3F3F;" d="M1789.553,1080.485c0,0,21.686-23.206,35.787-5.009s29.729,30.48,51.368,44.475
				c21.637,13.994-20.573,132.407-47.679,130.152C1801.925,1247.849,1692.781,1152.649,1789.553,1080.485z"/>
			<path style="fill:#2B478B;" d="M1681.564,1069.451c5.413-4.047,55.259-21.158,103.856-4.329
				c48.597,16.831-37.642,63.713-37.642,63.713l-27.95,1.203L1681.564,1069.451z"/>
			<path style="fill:#233862;" d="M1649.071,1790.91c0,0,0-13.42,1.912-17.881c1.912-4.462,8.924-22.629,8.924-22.629h27.409
				c0,0,5.1,16.573,5.419,21.992c0.317,5.418,0,18.518,0,18.518H1649.071z"/>
			<path style="fill:#233862;" d="M1823.101,1790.91c0,0,0-13.42-1.911-17.881c-1.913-4.462-8.925-22.629-8.925-22.629h-27.409
				c0,0-5.1,16.573-5.418,21.992c-0.319,5.418,0,18.518,0,18.518H1823.101z"/>
			<path style="fill:#FFB27D;" d="M1713.292,1037.757c0,0-0.966,29.88-4.79,43.266l-30.269,65.244l113.94-27.078L1765,1081.644
				c0,0-8.204-40.062-3.902-54.883C1765.4,1011.941,1713.292,1037.757,1713.292,1037.757z"/>
			<path style="fill:#ED985F;" d="M1713.126,1039.45c3.256,8.371,9.226,20.905,25.981,23.645
				c20.961,3.427,25.757-19.795,25.757-19.795L1713.126,1039.45z"/>
			<path style="fill:#2C3A64;" d="M1702.997,1024.321c0,0-5.481-27.36-9.307-35.646c-3.824-8.287-7.011-45.257,35.377-47.17
				c0,0,16.255,1.914,25.179-3.504c0,0,0,5.418-2.23,7.329c0,0,14.661-3.505,26.134,9.243c11.474,12.748-7.647,57.37-6.69,67.886
				L1702.997,1024.321z"/>
			<path style="fill:#FFB27D;" d="M1755.322,1054.717c-26.549,0.002-53.091-16.596-53.091-36.872v-31.644
				c0-7.404,5.163-13.462,11.473-13.462h46.917c6.311,0,11.474,6.059,11.474,13.462v29.852
				C1772.095,1037.316,1769.428,1054.715,1755.322,1054.717z"/>
			<path style="fill:#2C3A64;" d="M1702.231,1003.097c0,0,0.064-19.013,15.124-21.936c15.059-2.923,48.764,9.267,53.543-4.597
				c4.781-13.864-65.146-13.624-68.667-4.781C1698.71,980.627,1702.231,1003.097,1702.231,1003.097z"/>
			<path style="fill:#A8D29F;" d="M1754.738,1332.591c7.544-23.479,7.393,97.189-22.889,232.919
				c-4.621,20.715-14.969,70.667-22.397,119.012h-62.04c-0.856-39.04-5.041-93.535-7.676-134.354
				c-8.264-127.945,12.77-223.96,12.77-223.96L1754.738,1332.591z"/>
			<path style="fill:#A8D29F;" d="M1834.35,1550.165c-0.685,39.12-8.628,91.088-9.35,129.181h-62.939
				c-4.229-27.651-10.945-56.125-15.77-79.097c-3.435-16.311-5.914-29.844-5.878-38.346c0.071-16.616-10.441-64.527-16.698-106.776
				c-0.01-0.063-0.019-0.117-0.027-0.171c-0.243-1.623-0.478-3.245-0.703-4.851c-8.385-59.389-5.428-117.515-5.428-117.515
				l106.199-6.636C1823.756,1325.955,1836.171,1445.831,1834.35,1550.165z"/>
			<path style="fill:#82B378;" d="M1644.095,1375.417c0,0,23.892,28.95,88.808,24.771c64.914-4.18,95.885-15.476,95.885-15.476
				L1644.095,1375.417z"/>
			<path style="fill:#739AF0;" d="M1828.787,1384.713c-21.205,2.884-165.461,10.377-184.692-9.296
				c-19.23-19.683,31.394-288.106,31.394-288.106s5.734-1.658,15.409-3.479c4.931-0.929,10.882-1.894,17.616-2.705
				c0.082,2.092,1.75,33.737,28.021,46.812c0,0,31.557-12.641,28.464-46.297c-0.036-0.396-0.081-0.775-0.135-1.155
				c4.21,0.451,8.475,1.037,12.758,1.776c8.655,1.488,17.418,3.589,26.11,6.465
				C1803.732,1088.727,1849.993,1381.836,1828.787,1384.713z"/>
			<path style="fill:#739AF0;" d="M1645.311,1246.131c-0.854,1.115,4.896,9.375,13.011,19.998
				c16.691,21.815,43.392,53.566,43.392,53.566c-0.358,10.762-1.862,17.705-1.862,17.705c-36.676-17.33-61.473-33.539-77.911-46.557
				c-23.109-18.31-29.735-30.32-29.735-30.32c37.056-156.752,84.598-173.074,84.598-173.074l15.514,94.457
				C1692.315,1181.906,1647.908,1242.731,1645.311,1246.131z"/>
			<path style="fill:#BC3F3F;" d="M1777.622,1082.262l-9.558,29.068l-12.739,18.708l-18.285,9.917l-17.211-9.917l-28.932-46.207
				c4.931-0.929,10.882-1.894,17.616-2.705c0.082,2.092,1.75,33.737,28.021,46.812c0,0,31.557-12.641,28.464-46.297
				c-0.036-0.396-0.081-0.775-0.135-1.155C1769.074,1080.937,1773.339,1081.522,1777.622,1082.262z"/>
			<path style="fill:#FFB27D;" d="M1701.716,1319.698c-0.009,0.306-0.017,0.604-0.035,0.901c-0.081,1.983-0.199,3.841-0.344,5.526
				c-0.92,1.271-1.938,2.471-3.047,3.59c-1.687,1.703-3.507,3.136-5.364,4.345c-0.929-0.441-1.857-0.901-2.768-1.353
				c-31.412-15.552-53.268-30.023-68.216-41.86c9.484-2.921,22.774-9.594,36.379-24.723
				C1675.011,1287.944,1701.716,1319.698,1701.716,1319.698z"/>
			<path style="fill:#739AF0;" d="M1883.854,1254.76c0,0-6.396,12.137-29.151,30.885c-16.186,13.33-40.668,30.01-77.005,48.039
				c0,0-1.637-6.914-2.2-17.667c0,0,26.086-32.256,42.358-54.386c7.908-10.776,13.499-19.145,12.625-20.244
				c-2.066-2.599-29.901-39.211-42.323-55.541c-3.602-4.744-5.9-7.771-5.9-7.771l15.722-92.869
				C1797.979,1085.205,1843.806,1098.746,1883.854,1254.76z"/>
			<path style="fill:#FFB27D;" d="M1854.699,1285.645c-14.768,12.154-36.443,27.103-67.72,43.331
				c-0.774,0.396-1.559,0.803-2.352,1.208c-3.995-4.824-6.42-10.566-7.899-15.688c0.523-0.648,1.199-1.505,2.028-2.524
				c7.493-9.35,26.318-32.97,39.095-50.346C1831.735,1276.493,1845.16,1282.904,1854.699,1285.645z"/>
			<path style="fill:#FFB27D;" d="M1764.864,1080.485c-21.043-2.253-40.789-1.226-56.351,0.641
				c-0.009-0.072-0.009-0.108-0.009-0.108S1760.663,1048.759,1764.864,1080.485z"/>
			<g>
				<g>
					<polygon style="fill:#BBD4FF;" points="1712.555,1171.718 1711.483,1171.718 1710.694,1121.442 1713.399,1121.442 					"/>
				</g>
				<path style="fill:#BC3F3F;" d="M1711.375,1170.412c-0.975,1.471-3.166,6.331-1.711,6.844c1.454,0.515,4.008,0.544,4.692-0.141
					C1715.04,1176.432,1713.217,1167.636,1711.375,1170.412z"/>
			</g>
			<g>
				<g>
					<polygon style="fill:#BBD4FF;" points="1761.928,1171.718 1760.857,1171.718 1760.068,1121.442 1762.773,1121.442 					"/>
				</g>
				<path style="fill:#BC3F3F;" d="M1760.749,1170.412c-0.975,1.471-3.166,6.331-1.711,6.844c1.454,0.515,4.006,0.544,4.691-0.141
					C1764.413,1176.432,1762.59,1167.636,1760.749,1170.412z"/>
			</g>
			<path style="fill:#2B478B;" d="M1719.829,1130.038l-44.338-42.728c0,0-9.983-7.086,5.795-17.68
				S1719.829,1130.038,1719.829,1130.038z"/>
			<path style="fill:#2B478B;" d="M1755.322,1130.038l44.34-42.728c0,0,9.982-7.086-5.795-17.68
				C1778.088,1059.037,1755.322,1130.038,1755.322,1130.038z"/>
			<g>
				<path style="fill:#2B478B;" d="M1810.972,1338.046c-8.638,0.73-15.841-1.434-21.404-6.401c-0.938-0.84-1.795-1.731-2.588-2.669
					c-4.381-5.121-6.843-11.567-8.223-17.005c-1.586-6.211-1.757-11.098-1.757-11.197l-0.037-1.253h-71.613l0.045,1.335
					c0.279,7.699-0.965,14.308-3.714,19.744c-1.362,2.723-3.102,5.148-5.212,7.276c-1.948,1.965-4.103,3.552-6.311,4.832
					c-9.584,5.554-20.251,5.338-20.386,5.338l-1.326-0.045v30.257h143.923v-30.329L1810.972,1338.046z"/>
			</g>
			<path style="fill:#678FE5;" d="M1830.481,1241.387c0,0-39.921-52.382-8.32-67.633c12.544-6.055,30.203,65.828,20.736,72.59
				c-9.467,6.763-25.046,15.281-25.046,15.281L1830.481,1241.387z"/>
			<path style="fill:#678FE5;" d="M1649.906,1232.75c0,0,13.871-65.77,1.698-58.996c-12.171,6.773-30.203,65.828-20.735,72.59
				c9.467,6.763,25.046,15.281,25.046,15.281L1649.906,1232.75z"/>
			<g>
				<path style="fill:#BC3F3F;" d="M1824.884,1241.233c-18.229-22.63-25.039-59.377-24.109-97.297
					c0.698-28.475,4.602-54.171,4.856-55.071l14.951,11.645c-0.06,0.215-8.581,15.794-9.241,43.502
					c-0.603,25.34,1.085,48.411,15.406,92.519L1824.884,1241.233z"/>
			</g>
			<path style="fill:#82B378;" d="M1686.471,1698.514l-32.121-0.018c-2.842,0.319-7.292-3.844-7.292-9.794
				c0,0-0.066-14.267-1.009-16.804c-4.133-11.119,2.013-11.721,7.964-11.721h58.604c5.951,0-3.164,18.393-3.164,24.344l2.11,7.8
				C1711.563,1698.271,1692.421,1698.514,1686.471,1698.514z"/>
			<path style="fill:#233862;" d="M1696.09,1713.525l-9.09,39.783h-27.408l-1.314-38.232
				C1662.36,1716.574,1676.11,1720.405,1696.09,1713.525z"/>
			<polygon style="fill:#FFB27D;" points="1769.526,1685.72 1776.135,1713.107 1784.906,1749.428 1812.316,1749.428 
				1813.947,1714.635 1815.21,1687.798 			"/>
			<path style="fill:#82B378;" d="M1785.755,1698.514l32.119-0.018c2.843,0.319,7.292-3.844,7.292-9.794
				c0,0,0.068-14.267,1.01-16.804c4.133-11.119-2.014-11.721-7.964-11.721h-58.604c-5.95,0,3.165,18.393,3.165,24.344l-2.11,7.8
				C1760.663,1698.271,1779.804,1698.514,1785.755,1698.514z"/>
			<path style="fill:#233862;" d="M1776.135,1713.525l8.45,39.783h27.41l1.952-38.232
				C1809.863,1716.574,1796.113,1720.405,1776.135,1713.525z"/>
		</g>
		<g>
			<g>
				<path style="fill:#D9935C;" d="M2029.667,1292.336c-38.876-9.893-81.609-70.204-81.609-70.204l10.946-9.494
					c11.333,13.36,58.453,36.372,58.453,36.372c-0.253-12.227,0.067-23.379,0.839-33.53c5.23-68.989,31.237-91.975,38.336-97.018
					c1.146-0.818,1.804-1.161,1.804-1.161s0.026,0.5,0.066,1.451c0.104,2.05,0.291,6.181,0.484,11.849
					C2060.429,1172.826,2062.152,1300.611,2029.667,1292.336z"/>
				<path style="fill:#D9935C;" d="M1959.004,1212.638c-0.164-1.63-1.26-25.331-5.969-29.844
					c-4.708-4.513-14.005-10.658-16.676-10.161c-2.67,0.497-11.744,15.589-7.461,25.984c4.283,10.395,19.159,23.515,19.159,23.515
					L1959.004,1212.638z"/>
				<g>
					<path style="fill:#2B478B;" d="M1968.664,1215.394l-25.604,1.07c-0.85,0.036-1.567-0.624-1.603-1.474l-2.042-48.82
						c-0.035-0.851,0.625-1.568,1.475-1.603l25.603-1.071c0.85-0.036,1.567,0.625,1.603,1.474l2.042,48.821
						C1970.174,1214.641,1969.514,1215.357,1968.664,1215.394z"/>
					<path style="fill:#739AF0;" d="M1962.011,1215.671l-23.224,0.972c-1.506,0.063-2.779-1.107-2.842-2.614l-1.942-46.44
						c-0.063-1.506,1.107-2.778,2.614-2.842l23.223-0.972c1.508-0.063,2.78,1.106,2.844,2.614l1.942,46.44
						C1964.688,1214.336,1963.519,1215.608,1962.011,1215.671z"/>
				</g>
				<path style="fill:#D9935C;" d="M1934.417,1174.444c0,0,6.979-7.792,13.959-1.837c6.981,5.954-0.463,18.671-6.519,22.146
					c-6.054,3.477-7.996,5.288-7.996,5.288L1934.417,1174.444z"/>
			</g>
			<path style="fill:#CB7D45;" d="M2114.318,1693.437c-2.369,9.417-4.975,18.382-7.629,26.728c-0.569,1.788-1.129,3.549-1.699,5.268
				c-0.285,0.855-0.57,1.701-0.846,2.536c-0.561,1.651-1.11,3.273-1.661,4.856c-0.718,2.064-1.435,4.079-2.144,6.025
				c-0.52,1.445-1.041,2.86-1.553,4.246c-7.884,21.144-14.488,34.541-14.488,34.541l-15.708-1.081c0,0,5.898-28.054,7.077-68.236
				c0.039-1.435,0.079-2.881,0.108-4.345c0.06-3.116,0.098-6.291,0.098-9.534c0-1.327-0.009-2.675-0.019-4.031
				c-0.315-34.609-4.601-75.51-18.272-114.563c-11.118-31.749-19.179-61.454-25.007-88.298
				c-18.813-86.657-14.391-143.589-14.391-143.589l88.367,10.34l4.119,0.481c0.374,40.586,1.415,95.689,2.329,138.773
				c0.157,7.479,0.306,14.597,0.452,21.211c0.609,27.661,1.071,46.572,1.071,46.572
				C2131.52,1597.924,2125.346,1649.568,2114.318,1693.437z"/>
			<path style="fill:#B64C41;" d="M2089.02,1040.555c0,0,20.904,17.8,1.737,38.288c0,0,15.974,1.567,21.379-2.855
				c0,0-1.064,2.156-2.048,3.126c0,0,14.225,9.199,27.996-2.446c7.056-5.967-0.131-99.418-49.695-89.203
				c0,0-42.011-3.172-38.097,45.438c3.913,48.609-11.947,48.61-11.947,48.61s4.411,2.175,6.541,2.175c0,0,3.112-1.188,3.727-2.909
				c0,0-0.614,2.704-1.412,3.563c0,0,17.121,1.622,25.671-4.841C2081.419,1073.038,2091.459,1050.583,2089.02,1040.555z"/>
			<path style="fill:#D9935C;" d="M2156.482,1334.044c-16.699-37.452-24.689-48.043-24.969-59.827
				c-0.221-9.319,4.374-19.373,13.301-44.028c2.1-5.81,3.551-11.783,4.443-17.822c7.061-47.53-20.425-98.911-37.509-102.411
				c-4.753-1.257-12.81-18.424-12.71-46.086l-2.14,0.42l-35.971,7.124c0,0,0.818,11.32,0.843,21.984
				c0.023,8.887-0.456,17.929-2.47,18.989c-2.589,0.234-4.944,0.706-4.944,0.706s-30.441,21.38-32.407,50.376
				c-2.626,38.733,24.681,84.649,0.463,162.064C1997.687,1404.599,2165.709,1354.74,2156.482,1334.044z"/>
			<path style="fill:#CB7D45;" d="M2060.928,1071.413c0,0,0.819,11.32,0.844,21.984c20.129-0.568,30.768-18.931,35.128-29.108
				L2060.928,1071.413z"/>
			<path style="fill:#B64C41;" d="M2100.613,1060.374c0,0,10.549-16.667,13.081-30.919c1.808-10.175-3.375-47.889-41.274-42.458
				c0,0-11.008,1.085-21.354,8.073c-8.229,5.557-20.105,17.555-6.826,50.467l3.448,11.117L2100.613,1060.374z"/>
			<path style="fill:#D9935C;" d="M2054.205,1081.512c0,0,47.625,0.785,47.658-28.882c0.032-29.665,6.202-49.542-24.203-51.299
				c-30.406-1.755-36.326,9.558-38.746,19.458C2036.495,1030.688,2041.818,1080.541,2054.205,1081.512z"/>
			<path style="fill:#B64C41;" d="M2055.969,1000.606c0,0,13.039,34.804,33.051,39.949s28.691-0.216,28.691-0.216
				s-6.15-16.913-9.337-38.198C2108.374,1002.141,2065.805,984.04,2055.969,1000.606z"/>
			<path style="fill:#B64C41;" d="M2059.201,1003.431c0,0-9.738,7.769-12.113,15.324c-2.373,7.555-3.442,23.105-7.974,22.577
				c0,0-9.824-23.656,1.217-37.038C2052.037,990.104,2059.201,1003.431,2059.201,1003.431z"/>
			<path style="fill:#D9935C;" d="M2218.421,1373.825l-14.297,4.288c0,0-47.165-78.252-51.452-98.614
				c-1.398-6.63-4.828-19.895-8.83-34.757c-8.281-30.779-18.97-68.441-18.97-68.441l-3.52-15.246l-12.005-51.992
				c0,0,22.988,2.349,36.434,7.972c4.452,1.857,7.849,4.075,9.035,6.678c9.877,21.719,19.738,76.535,26.672,115.638
				c3.861,21.793,6.809,38.709,8.346,42.294C2194.123,1291.644,2207.226,1346.671,2218.421,1373.825z"/>
			<path style="fill:#B64C41;" d="M2057.391,1004.606c0,0,9.291,36.446,34.541,48.119c0,0-25.25-22.392-27.394-46.45
				C2062.395,982.215,2057.391,1004.606,2057.391,1004.606z"/>
			<path style="fill:#D9935C;" d="M2165.008,1685.828c-5.08,54.221-27.453,89.292-27.453,89.292l-7.637,6.949
				c0,0-6.959-39.701-11.982-85.153c-4.787-43.199-11.353-88.916-18.775-102.875c-11.096-20.849-19.275-63.489-25.163-108.537
				c-9.73-74.547-13.181-155.709-13.181-155.709l89.595-4.443c9.015,15.147,12.938,39.997,13.87,68.247
				c0.983,29.704-1.355,63.174-4.6,93.085c-4.531,41.873-10.842,76.778-12.307,84.622c0,0.01,0,0.02-0.01,0.039
				c-0.197,1.032,0.107,2.064,0.59,2.998C2165.786,1609.631,2168.361,1650,2165.008,1685.828z"/>
			<path style="fill:#A8D29F;" d="M2060.452,1209.541c-2.015,49.216-9.378,97.951-30.806,94.815
				c-26.264-3.834-33.105-28.35-34.501-46.573c-0.865-11.343,0.383-20.248,0.383-20.248s12.927-0.06,15.021-1.985
				c9.927-9.171,6.979-99.11,11.893-108.449c4.915-9.338,36.803-15.334,36.803-15.334S2062.457,1160.895,2060.452,1209.541z"/>
			<path style="fill:#82B378;" d="M2060.452,1209.541c-2.015,49.216-9.378,97.951-30.806,94.815
				c-26.264-3.834-33.105-28.35-34.501-46.573c6.448-0.324,17.802-1.896,22.313-8.777c6.457-9.85,26.607-73.249,26.607-73.249
				S2051.988,1189.989,2060.452,1209.541z"/>
			<path style="fill:#233862;" d="M2114.318,1693.437c-2.369,9.417-4.975,18.382-7.629,26.728c-0.569,1.788-1.129,3.549-1.699,5.268
				c-0.285,0.855-0.57,1.701-0.846,2.536c-0.561,1.651-1.11,3.273-1.661,4.856c-0.718,2.064-1.435,4.079-2.144,6.025
				c-0.52,1.445-1.041,2.86-1.553,4.246c-7.884,21.144-14.488,34.541-14.488,34.541l-15.708-1.081c0,0,5.898-28.054,7.077-68.236
				c0.039-1.435,0.079-2.881,0.108-4.345c0.06-3.116,0.098-6.291,0.098-9.534c0-1.327-0.009-2.675-0.019-4.031
				c-0.315-34.609-4.601-75.51-18.272-114.563c-11.118-31.749-19.179-61.454-25.007-88.298c9.338,1.926,17.561-0.041,41.421-2.045
				c2.507-0.211,14.499,14.636,26.343,34.285c0.609,27.66,14.185,41.549,14.185,41.549
				C2131.52,1597.924,2125.346,1649.568,2114.318,1693.437z"/>
			<path style="fill:#2B478B;" d="M2165.008,1685.828c-5.08,54.221-27.453,89.292-27.453,89.292l-7.637,6.949
				c0,0-6.959-39.701-11.982-85.153c-4.787-43.199-11.353-88.916-18.775-102.875c-11.096-20.849-19.275-63.489-25.163-108.537
				c8.247,3.431,36.311,12.346,85.685,1.18c-4.531,41.873-10.842,76.778-12.307,84.622c0,0.01,0,0.02-0.01,0.039
				c-0.197,1.032,0.107,2.064,0.59,2.998C2165.786,1609.631,2168.361,1650,2165.008,1685.828z"/>
			<path style="fill:#2B478B;" d="M2182.17,1421.986c0,0-18.744,5.791-46.359,9.61c-34.191,4.729-81.99,6.433-124.676-9.61
				c0,0-3.518-63.52,6.597-96.63c10.114-33.122,14.842-48.963,14.842-48.963s40.524,10.161,81.68,2.282
				c5.781-1.1,11.571-2.565,17.261-4.463c0,0,25.388,53.9,32.369,76.998S2182.17,1421.986,2182.17,1421.986z"/>
			<path style="fill:#233862;" d="M2182.17,1421.986c0,0-18.744,5.791-46.359,9.61c-50.638-28.713-25.946-149.54-25.946-149.54
				c1.502-1.22,2.97-2.346,4.389-3.381c5.781-1.1,11.571-2.565,17.261-4.463c0,0,25.388,53.9,32.369,76.998
				S2182.17,1421.986,2182.17,1421.986z"/>
			<path style="fill:#A8D29F;" d="M2223.621,1301.083c0,12.365-12.61,19.964-26.146,23.659c-13.015,3.559-26.874,3.509-31.208,0.609
				c-7.48-5.013-19.669-60.746-23.229-77.712c-0.638-3.076-1.002-4.876-1.002-4.876s-9.721,23.198-10.025,25.36
				c-0.139,0.973-0.256,2.311-0.345,3.489c-0.098,1.426-0.157,2.605-0.157,2.605s-52.755,26.629-98.934,2.173
				c0,0-18.774-108.499-10.626-127.175c4.05-9.278,25.173-28.428,33.626-36.684c1.897-1.858,1.711-5.534,0.974-8.896
				c-0.608-2.84,1.946-5.338,4.759-4.609c5.435,1.416,15.215,1.171,25.693-2.271c5.22-1.7,10.606-4.196,15.707-7.676
				c1.484-1.013,3.5-0.078,3.726,1.7c0.796,6.469,2.753,18.282,6.32,18.282c4.915-0.029,38.454,4.09,40.911,8.238
				c0.854,1.444,9.573,21.172,20.582,47.309c0,0,0.01,0.021,0.021,0.069C2194.93,1213.708,2223.621,1285.268,2223.621,1301.083z"/>
			<path style="fill:#82B378;" d="M2142.037,1242.764c0,0-9.721,23.198-10.025,25.36c-0.139,0.973-0.256,2.311-0.345,3.489
				c-4.698,3.835-10.38,6.744-16.17,8.503c-16.444,4.983-23.59-26.539-22.608-42.267c0.984-15.727,24.24-60.618,31.986-61.553
				C2132.61,1175.373,2142.037,1242.764,2142.037,1242.764z"/>
			<path style="fill:#E58638;" d="M2143.039,1247.64c-0.638-3.076-1.002-4.876-1.002-4.876
				C2142.549,1244.426,2142.883,1246.048,2143.039,1247.64z"/>
			<g>
				<path style="fill:#B64C41;" d="M2075.608,1288.351c-30.021,0-42.394-10.331-43.309-11.034l-1.942-14.138
					c0.288,0.213,40.568,24.399,102.905,1.235l-1.321,10.711C2107.967,1284.033,2091.2,1288.351,2075.608,1288.351z"/>
			</g>
			<path style="fill:#82B378;" d="M2223.621,1301.083c0,12.365-12.61,19.964-26.146,23.659
				c18.657-22.215-22.165-156.633-23.207-160.063C2194.93,1213.708,2223.621,1285.268,2223.621,1301.083z"/>
			<path style="fill:#82B378;" d="M2112.755,1109.063c0,0-25.114,15.905-44.114,12.141c0,0-4.562-2.881,1.73-5.78
				c5.906-2.713,19.648-10.743,16.631-18.667c5.22-1.7,10.606-4.196,15.707-7.676c1.484-1.013,3.5-0.078,3.726,1.7
				C2107.23,1097.249,2109.188,1109.063,2112.755,1109.063z"/>
			<g>
				<path style="fill:#233862;" d="M2093.341,1790.81h-10.027c-3.358-0.529-5.838-1.501-9.283-1.951
					c-5.23-0.686-7.639,1.458-8.117,1.951c-0.064,0.064-0.093,0.101-0.093,0.101h-42.592c-1.072-1.529-0.043-5.074,0.965-7.683
					c0.679-1.772,2.157-3.116,3.987-3.645c4.517-1.308,13.421-2.473,21.575-9.854c4.588-4.146,22.153-15.243,22.153-15.243
					l0.092-0.021c0.387,0.007,2.224,0.572,10.212,7.317c4.131,3.481,11.17-4.916,11.17-4.916s1.322,1.093,2.309,3.13
					c0.793,1.607,1.372,3.815,0.915,6.539c-0.637,3.837,1.414,10.97,3.051,15.793c0.993,2.923,1.83,4.995,1.83,4.995
					S2101.966,1789.731,2093.341,1790.81z"/>
				<path style="fill:#466AA5;" d="M2095.691,1759.995c-2.394,1.687-7.446,5.01-10.798,5.445
					c-4.524,0.594-12.984-10.955-12.984-10.955l0.092-0.021c0.387,0.007,2.224,0.572,10.212,7.317
					c4.131,3.481,11.17-4.916,11.17-4.916S2094.705,1757.958,2095.691,1759.995z"/>
				<path style="fill:#466AA5;" d="M2093.341,1790.81h-10.027c-3.358-0.529-5.838-1.501-9.283-1.951
					c-5.23-0.686-7.639,1.458-8.117,1.951c-0.064,0.064-0.093,0.101-0.093,0.101h-42.592c-1.072-1.529-0.043-5.074,0.965-7.683
					c1.294-1.151,1.657,4.995,2.373,5.975c0.714,0.979,34.744,0.356,36.71-1.072c1.965-1.43,7.86-3.931,16.079-1.966
					c7.153,1.709,17.693-2.672,20.302-3.837c0.993,2.923,1.83,4.995,1.83,4.995S2101.966,1789.731,2093.341,1790.81z"/>
			</g>
			<g>
				<path style="fill:#233862;" d="M2146.844,1790.81h-10.026c-3.358-0.529-5.838-1.501-9.282-1.951
					c-5.231-0.686-7.64,1.458-8.119,1.951c-0.063,0.064-0.092,0.101-0.092,0.101h-42.592c-1.072-1.529-0.043-5.074,0.965-7.683
					c0.679-1.772,2.158-3.116,3.987-3.645c4.517-1.308,13.421-2.473,21.575-9.854c4.588-4.146,22.153-15.243,22.153-15.243
					l0.093-0.021c0.386,0.007,2.223,0.572,10.211,7.317c4.131,3.481,11.17-4.916,11.17-4.916s1.321,1.093,2.309,3.13
					c0.793,1.607,1.372,3.815,0.914,6.539c-0.635,3.837,1.415,10.97,3.053,15.793c0.992,2.923,1.828,4.995,1.828,4.995
					S2155.47,1789.731,2146.844,1790.81z"/>
				<path style="fill:#466AA5;" d="M2149.195,1759.995c-2.395,1.687-7.446,5.01-10.798,5.445
					c-4.523,0.594-12.984-10.955-12.984-10.955l0.093-0.021c0.386,0.007,2.223,0.572,10.211,7.317
					c4.131,3.481,11.17-4.916,11.17-4.916S2148.208,1757.958,2149.195,1759.995z"/>
				<path style="fill:#466AA5;" d="M2146.844,1790.81h-10.026c-3.358-0.529-5.838-1.501-9.282-1.951
					c-5.231-0.686-7.64,1.458-8.119,1.951c-0.063,0.064-0.092,0.101-0.092,0.101h-42.592c-1.072-1.529-0.043-5.074,0.965-7.683
					c1.294-1.151,1.658,4.995,2.372,5.975c0.715,0.979,34.745,0.356,36.711-1.072c1.965-1.43,7.86-3.931,16.079-1.966
					c7.152,1.709,17.693-2.672,20.303-3.837c0.992,2.923,1.828,4.995,1.828,4.995S2155.47,1789.731,2146.844,1790.81z"/>
			</g>
			<g>
				<path style="fill:#4A75CB;" d="M2253.847,1434.752c-0.99-4.979-4.49-9.027-9.249-10.792c-7.721-2.863-20.356-5.445-35.896-0.877
					c-26.227,7.71-28.794,23.831-27.06,35.426c1.736,11.596-3.406,30.074-2.651,43.224c0.755,13.148,4.521,46.181,23.941,44.447
					c19.421-1.734,82.019-18.559,82.019-18.559s10.814-20.582-11.402-50.393C2260.37,1459.545,2255.575,1443.434,2253.847,1434.752z
					"/>
				<g>
					<g>
						<path style="fill:#BC3F3F;" d="M2241.826,1419.556l-5.193,0.47c-0.002-0.009-0.598-3.593-2.981-5.849
							c-1.834-1.73-4.37-2.359-7.528-1.844c-2.993,0.478-5.145,1.852-6.233,4.061c-1.537,3.108-0.686,7.114-0.677,7.157
							l-5.063,1.172c-0.063-0.274-1.527-6.783,1.127-12.252c1.822-3.779,5.083-5.954,9.595-6.804
							c4.651-0.745,8.587,0.391,11.698,3.379C2240.861,1413.169,2241.79,1419.302,2241.826,1419.556z"/>
					</g>
					<g>
						<path style="fill:#739AF0;" d="M2297.818,1524.684c0,0-62.605,16.865-82.041,18.564c-19.42,1.766-23.198-31.266-23.912-44.459
							c-0.766-13.111,4.357-31.604,2.65-43.224c-0.354-2.194-0.551-4.634-0.395-7.087c0.5-10.343,6.295-22.095,27.413-28.295
							c15.583-4.591,28.182-1.972,35.933,0.892c4.734,1.769,8.274,5.801,9.257,10.765c0.229,1.013,0.437,2.245,0.712,3.459
							c2.23,9.229,7.388,23.55,18.991,39.038C2308.65,1504.116,2297.818,1524.684,2297.818,1524.684z"/>
						<path style="fill:#678FE5;" d="M2201.319,1501.564l37.731-8.539c0,0,8.778,27.022-9.051,31.944
							C2212.17,1529.893,2204.77,1519.432,2201.319,1501.564z"/>
						<path style="fill:#BC3F3F;" d="M2201.319,1501.564c0,0,8.707,8.39,20.469,5.432c11.764-2.958,17.263-13.971,17.263-13.971
							L2201.319,1501.564z"/>
						<path style="fill:#678FE5;" d="M2246.711,1491.294l37.73-8.538c0,0,8.779,27.021-9.053,31.944
							C2257.561,1519.622,2250.161,1509.16,2246.711,1491.294z"/>
						<path style="fill:#BC3F3F;" d="M2246.711,1491.294c0,0,8.705,8.39,20.469,5.432c11.762-2.957,17.262-13.97,17.262-13.97
							L2246.711,1491.294z"/>
						<path style="fill:#678FE5;" d="M2266.724,1431.84c0.229,1.013,0.437,2.245,0.712,3.459
							c-4.988,10.294-14.443,23.445-30.448,26.498c-27.216,5.306-42.866-13.318-42.866-13.318
							c0.5-10.343,6.295-22.095,27.413-28.295c15.583-4.591,28.182-1.972,35.933,0.892
							C2262.201,1422.844,2265.741,1426.876,2266.724,1431.84z"/>
						<path style="fill:#BC3F3F;" d="M2237.372,1467.499L2237.372,1467.499c-1.703,0.386-3.413-0.692-3.798-2.396l-0.638-2.816
							c-0.386-1.704,0.692-3.413,2.396-3.798l0,0c1.704-0.386,3.413,0.692,3.798,2.396l0.638,2.815
							C2240.153,1465.404,2239.076,1467.114,2237.372,1467.499z"/>
					</g>
				</g>
			</g>
			<path style="fill:#D9935C;" d="M2217.407,1371.445c0,0,4.347,10.243,8.873,13.102c4.525,2.858,8.826,9.718,9.767,15.245
				c1.725,10.144-6.051,16.436-11.768,16.436s-11.181-7.795-14.543-26.41c-0.184-1.024-5.609-11.702-5.609-11.702L2217.407,1371.445
				z"/>
		</g>
		<path style="fill:#2C3A64;" d="M1736.743,981.73c0,0-16.276,0.186-16.855,14.687c-0.579,14.501-4.813,25.107-7.782,11.472
			c-2.97-13.636-11.018,6.027-9.05,16.433c0,0-12.396-10.156-11.382-46.735c1.013-36.578,49.303-28.137,49.303-28.137l4.521,19.696
			L1736.743,981.73z"/>
	</g>
	<path style="fill:#2E3552;" d="M2823.723,1795H176.278c-1.51,0-2.745-1.235-2.745-2.745v-2.69c0-1.51,1.235-2.744,2.745-2.744
		h2647.445c1.509,0,2.744,1.234,2.744,2.744v2.69C2826.467,1793.765,2825.231,1795,2823.723,1795z"/>
</g>
</svg>
